<svg width="112" height="30" viewBox="0 0 112 30" fill="none" xmlns="http://www.w3.org/2000/svg">
<g clip-path="url(#clip0_13620_388)">
<path d="M32.924 0.955845C26.468 1.00207 21.1871 8.17741 21.1871 14.436C21.1871 21.0221 25.0582 29.0562 32.924 29.0301C40.7898 29.0041 44.8723 20.3547 44.8723 14.4361C44.8723 7.89836 39.38 0.909689 32.924 0.955845ZM32.924 1.20138C38.3274 1.20138 39.7852 7.1691 39.7852 14.436C39.7852 24.0246 38.0267 28.7552 32.924 28.7462C27.8212 28.7372 26.1612 24.8654 26.1612 14.436C26.1612 7.90287 27.5205 1.20138 32.924 1.20138ZM47.0042 14.613C46.9752 7.49168 52.6748 1.18357 57.4995 0.870511C59.2423 0.747089 61.4825 1.54512 62.7903 2.11367C63.74 2.52653 65.6786 1.9289 66.0228 0.832642H66.2106V10.5332H66.0228C66.0228 10.1197 64.2264 1.11445 57.4995 1.11445C52.5308 1.11445 52.0509 9.85116 52.0509 14.6129C52.0509 19.3746 52.1955 28.8014 57.9938 28.8014C60.8026 28.8014 62.8818 27.5724 63.4207 25.0863V17.5272H61.0631V17.2052H70.2017V17.5272H67.9477V28.5787H67.7642C67.7642 28.5787 67.3978 26.9841 65.5383 26.9895C63.1618 26.9963 60.9204 29.0611 58.1882 29.0359C50.9628 28.9694 47.0332 21.7343 47.0042 14.613ZM3.46265 1.91138H0.617188V1.59156H10.5851V1.91138H8.08443L15.2068 21.2534C17.4339 14.3966 19.1593 9.32811 21.4811 1.91138H19.0076V1.59156H24.2708V1.91138H21.874L13.2176 28.8973L3.46265 1.91138ZM71.5973 22.2905L71.5523 1.88035H68.8437V1.57463H78.8224V1.88035H76.1154L76.1756 24.2589C76.7748 26.8214 77.8402 28.7658 81.4802 28.7948C85.12 28.8237 87.5946 26.6415 88.5142 23.6594V1.88027H85.4157V1.58364H110.776L110.828 11.3813H110.585C110.114 5.0553 107.673 2.66449 103.404 1.96706C101.935 1.72705 100.395 1.90499 98.4463 1.8898V14.3942C100.143 14.5253 101.95 14.4181 103.168 13.3721C104.275 12.421 104.588 10.2235 104.669 9.33072H104.884V20.2182H104.652C104.585 20.2182 104.496 17.486 103.168 16.1898C101.831 14.8851 100.129 14.5643 98.4463 14.8751V28.2327C100.822 28.2327 102.717 28.4339 104.362 27.983C109.362 26.6121 111.122 22.3937 111.108 18.1629H111.386V28.5488H91.4948V28.2327H93.7439V1.88035H88.8844V23.6594C88.3337 25.7432 86.3206 29.1907 81.1617 29.1671C76.3651 29.1452 71.6076 26.9827 71.5973 22.2905Z" fill="black"/>
</g>
<defs>
<clipPath id="clip0_13620_388">
<rect width="112" height="30" fill="white"/>
</clipPath>
</defs>
</svg>
