<svg width="232" height="32" viewBox="0 0 232 32" fill="none" xmlns="http://www.w3.org/2000/svg">
<g clip-path="url(#clip0_13620_385)">
<path d="M17.9155 3.96639C17.9155 1.45939 15.5338 0.832642 13.6536 0.832642V1.20869C14.7817 1.20869 15.6592 1.58474 15.6592 2.46219C15.6592 2.96359 15.2831 3.71569 14.155 3.71569C13.2775 3.71569 11.3973 3.21429 10.0184 2.71289C8.38888 2.08614 6.88468 1.58474 5.63119 1.58474C3.12419 1.58474 1.36929 3.46499 1.36929 5.59594C1.36929 7.47619 2.74814 8.10294 3.24954 8.35364L3.37489 8.10294C3.12419 7.85224 2.74814 7.60154 2.74814 6.84944C2.74814 6.34804 3.24954 5.47059 4.50304 5.47059C5.63119 5.47059 7.13538 5.97199 9.14098 6.59874C10.8959 7.10014 12.7761 7.47619 13.7789 7.60154V11.4874L11.8987 13.1169V13.2423L13.7789 14.8718V20.2619C12.7761 20.8886 11.648 21.014 10.6452 21.014C8.76493 21.014 7.13538 20.5126 5.75654 19.0084L10.8959 16.5014V7.85224L4.62839 10.6099C5.12979 8.98039 6.50864 7.85224 7.88748 7.10014L7.76213 6.72409C4.00164 7.72689 0.617188 11.2367 0.617188 15.4986C0.617188 20.5126 4.75374 24.2731 9.39168 24.2731C14.4057 24.2731 17.6648 20.2619 17.6648 16.1253H17.4141C16.662 17.7549 15.5338 19.2591 14.155 20.0112V14.8718L16.1606 13.2423V13.1169L14.155 11.4874V7.60154C16.0352 7.60154 17.9155 6.34804 17.9155 3.96639ZM7.01003 17.7549L5.50584 18.507C4.62839 17.3788 4.12699 15.8746 4.12699 13.7437C4.12699 12.8662 4.12699 11.8634 4.37769 11.1113L7.01003 9.98319V17.7549ZM20.2971 20.6379L18.6676 21.8914L18.9183 22.1421L19.6704 21.5154L22.4281 24.0224L26.1886 21.5154L26.0632 21.2647L25.0604 21.8914L23.8069 20.6379V12.1141L24.8097 11.362L26.9407 13.1169V20.7633C26.9407 25.5266 25.9379 26.2787 23.8069 27.0308V27.4068C27.3167 27.5322 30.5758 26.404 30.5758 20.2619V11.9888L31.704 11.1113L31.4533 10.8606L30.4505 11.6127L27.3167 8.98039L23.8069 11.6127V1.33404H23.5562L19.169 4.34244V4.59314C19.6704 4.84384 20.4225 5.09454 20.4225 6.47339L20.2971 20.6379ZM43.2362 19.2591L40.1024 21.6407L36.9687 19.1337V17.6295L42.8601 13.6183V13.493L39.8517 8.98039L33.3335 12.4902V20.7633L32.08 21.7661L32.3307 22.0168L33.4589 21.1393L37.7208 24.2731L43.3615 19.7605L43.2362 19.2591ZM36.9687 17.1281V10.986L37.2194 10.8606L39.9771 15.2479L36.9687 17.1281ZM67.178 2.83824C67.178 2.46219 67.0527 2.08614 66.9273 1.71009H66.6766C66.3006 2.71289 65.7992 3.21429 64.5457 3.21429C63.4175 3.21429 62.6654 2.58754 62.164 2.08614L58.5289 6.22269L58.7796 6.47339L60.0331 5.34524C60.7852 5.97199 61.4119 6.47339 63.1668 6.59874V17.0028L55.7712 4.34244C55.1444 3.33964 54.267 1.96079 52.5121 1.96079C50.5065 1.96079 48.7516 3.71569 49.0023 6.47339H49.3783C49.5037 5.72129 49.8797 4.84384 50.7572 4.84384C51.3839 4.84384 52.0107 5.47059 52.3867 6.09734V10.2339C50.1304 10.2339 48.6262 11.2367 48.6262 13.1169C48.6262 14.1197 49.1276 15.6239 50.6318 16V15.7493C50.3811 15.4986 50.2558 15.2479 50.2558 14.8718C50.2558 14.2451 50.7572 13.7437 51.6346 13.7437H52.2614V19.0084C49.629 19.0084 47.4981 20.5126 47.4981 23.0196C47.4981 25.4012 49.5037 26.5294 51.76 26.404V26.1533C50.3811 26.028 49.7544 25.4012 49.7544 24.5238C49.7544 23.3956 50.5065 22.8942 51.5093 22.8942C52.5121 22.8942 53.3895 23.521 54.0163 24.2731L57.6514 20.2619L57.4007 20.0112L56.5233 21.014C55.1444 19.7605 54.3923 19.3844 52.7628 19.1337V6.59874L62.7908 24.1477H63.5429V6.59874C65.4231 6.47339 67.178 4.96919 67.178 2.83824ZM76.3286 19.2591L73.1948 21.6407L70.0611 19.1337V17.6295L75.9525 13.6183V13.493L72.9441 8.98039L66.4259 12.4902V20.7633L65.1724 21.7661L65.4231 22.0168L66.5513 21.1393L70.8132 24.2731L76.4539 19.7605L76.3286 19.2591ZM70.0611 17.1281V10.986L70.3118 10.8606L73.0695 15.2479L70.0611 17.1281ZM96.7606 10.3592L95.8831 10.986L93.5015 8.98039L90.7438 11.4874L91.8719 12.6155V22.0168L88.8635 20.1365V12.3648L89.8663 11.7381L86.9833 8.98039L84.2256 11.4874L85.3537 12.6155V21.6407L84.9777 21.8914L82.3453 20.0112V12.4902C82.3453 10.7353 81.4679 10.2339 80.4651 9.60714C79.5876 8.98039 79.0863 8.60434 79.0863 7.72689C79.0863 6.97479 79.8383 6.59874 80.2144 6.34804V6.09734C79.2116 6.09734 76.5792 7.10014 76.5792 9.48179C76.5792 10.7353 77.206 11.2367 77.8327 11.8634C78.4595 12.4902 79.0863 12.9916 79.0863 14.1197V21.39L77.7074 22.3928L77.9581 22.6435L79.2116 21.6407L82.0947 24.1477L85.2284 22.0168L88.7382 24.1477L95.3817 20.2619V11.8634L97.0113 10.6099L96.7606 10.3592ZM120.076 3.46499L118.822 4.59314L116.064 2.08614L111.928 5.09454V2.33684H111.552L111.677 22.6435C111.301 22.6435 110.173 22.3928 109.296 22.1421L109.045 5.21989C109.045 3.96639 108.167 2.21149 105.911 2.21149C103.655 2.21149 102.151 3.96639 102.151 5.72129H102.527C102.652 4.96919 103.028 4.34244 103.78 4.34244C104.532 4.34244 105.159 4.84384 105.159 6.47339V11.362C102.903 11.4874 101.524 12.7409 101.524 14.3704C101.524 15.3732 102.025 16.8774 103.529 16.8774V16.6267C103.028 16.376 102.903 16 102.903 15.7493C102.903 14.9972 103.529 14.7465 104.532 14.7465H105.034V22.5182C103.153 23.1449 102.401 24.5238 102.401 26.028C102.401 28.1589 104.031 29.6631 106.538 29.6631C108.293 29.6631 109.797 29.4124 111.301 29.0364C112.555 28.7857 114.184 28.4096 114.936 28.4096C115.939 28.4096 116.315 28.911 116.315 29.5378C116.315 30.4152 115.939 30.7913 115.438 30.9166V31.1673C117.443 30.7913 118.697 29.5378 118.697 27.6575C118.697 25.7773 116.817 24.6491 114.811 24.6491C113.808 24.6491 111.677 25.0252 110.173 25.2759C108.418 25.6519 106.663 25.9026 106.162 25.9026C105.284 25.9026 104.282 25.5266 104.282 24.2731C104.282 23.2703 105.159 22.3928 107.29 22.3928C108.418 22.3928 109.797 22.5182 111.176 22.8942C112.68 23.2703 114.059 23.6463 115.312 23.6463C117.193 23.6463 118.822 23.0196 118.822 20.3872V4.96919L120.326 3.71569L120.076 3.46499ZM114.936 11.1113C114.56 11.4874 114.059 11.8634 113.432 11.8634C112.805 11.8634 112.179 11.4874 111.928 11.1113V5.59594L113.181 4.71849L114.936 6.34804V11.1113ZM114.936 14.8718C114.686 14.6211 114.059 14.2451 113.432 14.2451C112.805 14.2451 112.179 14.6211 111.928 14.8718V11.6127C112.179 11.8634 112.805 12.2395 113.432 12.2395C114.059 12.2395 114.686 11.8634 114.936 11.6127V14.8718ZM114.936 20.7633C114.936 21.7661 114.31 22.7689 112.931 22.7689H111.928V15.3732C112.179 15.1225 112.805 14.7465 113.432 14.7465C114.059 14.7465 114.56 15.1225 114.936 15.3732V20.7633ZM132.109 11.8634L128.098 8.98039L121.956 12.4902V20.6379L120.702 21.6407L120.828 21.8914L121.831 21.1393L125.842 24.1477L132.109 20.3872V11.8634ZM125.34 19.7605V10.7353L128.474 12.9916V21.8914L125.34 19.7605ZM144.018 9.23109H143.767C143.391 9.48179 143.015 9.73249 142.639 9.73249C142.137 9.73249 141.511 9.48179 141.26 9.10574H141.009L138.878 11.4874L136.747 9.10574L132.987 11.6127L133.112 11.8634L134.115 11.2367L135.368 12.6155V20.5126L133.739 21.7661L133.99 22.0168L134.742 21.39L137.75 23.897L141.636 21.2647L141.511 21.014L140.382 21.6407L138.878 20.3872V11.6127C139.505 12.2395 140.257 12.8662 141.134 12.8662C142.889 12.9916 143.892 11.2367 144.018 9.23109ZM159.06 21.2647L154.798 24.1477L149.032 15.3732L153.168 8.98039H153.419C153.92 9.48179 154.672 9.98319 155.55 9.98319C156.427 9.98319 157.054 9.48179 157.43 8.98039H157.681C157.555 11.4874 155.8 12.9916 154.547 12.9916C153.293 12.9916 152.667 12.3648 151.915 11.9888L151.539 12.6155L157.806 21.8914L159.06 21.1393V21.2647ZM145.271 20.6379L143.641 21.8914L143.892 22.1421L144.644 21.5154L147.402 24.0224L151.162 21.5154L150.912 21.2647L149.909 21.8914L148.655 20.6379V1.33404H148.53L144.018 4.34244V4.59314C144.519 4.84384 145.271 4.96919 145.271 6.47339V20.6379ZM179.868 3.96639C179.868 1.45939 177.486 0.832642 175.606 0.832642V1.20869C176.734 1.20869 177.611 1.58474 177.611 2.46219C177.611 2.96359 177.235 3.71569 176.107 3.71569C175.23 3.71569 173.349 3.21429 171.971 2.71289C170.341 2.21149 168.837 1.71009 167.583 1.71009C165.076 1.71009 163.321 3.59034 163.321 5.72129C163.321 7.60154 164.7 8.22829 165.202 8.47899L165.327 8.22829C164.951 7.97759 164.575 7.72689 164.575 6.97479C164.575 6.47339 165.076 5.59594 166.33 5.59594C167.458 5.59594 168.962 6.09734 170.968 6.72409C172.723 7.22549 174.603 7.60154 175.606 7.72689V11.6127L173.725 13.2423V13.3676L175.606 14.9972V20.3872C174.603 21.014 173.475 21.1393 172.472 21.1393C170.592 21.1393 168.962 20.6379 167.583 19.1337L172.723 16.6267V7.85224L166.455 10.6099C167.082 8.98039 168.461 7.85224 169.714 6.97479L169.589 6.72409C165.828 7.72689 162.444 11.1113 162.444 15.3732C162.444 20.3872 166.581 24.1477 171.218 24.1477C176.232 24.1477 179.492 20.1365 179.492 16H179.241C178.489 17.6295 177.361 19.1337 175.982 19.8858V14.7465L177.987 13.1169V12.9916L176.107 11.362V7.60154C177.987 7.60154 179.868 6.34804 179.868 3.96639ZM168.962 17.7549L167.458 18.507C166.581 17.3788 166.079 15.8746 166.079 13.7437C166.079 12.8662 166.204 11.8634 166.455 11.1113L169.087 9.98319L168.962 17.7549ZM184.255 2.71289H184.129L181.622 4.84384V4.96919L183.753 7.35084H184.004L186.511 5.21989V5.09454L184.255 2.71289ZM188.015 21.2647L187.013 21.8914L185.759 20.6379V11.9888L187.013 11.1113L186.762 10.8606L185.884 11.6127L183.628 8.98039L179.993 11.4874L180.244 11.8634L181.121 11.2367L182.249 12.6155V20.7633L180.62 22.0168L180.745 22.2675L181.622 21.6407L184.38 24.1477L188.141 21.6407L188.015 21.2647ZM208.949 21.1393L208.071 21.7661L206.692 20.5126V11.9888L207.946 10.986L207.695 10.7353L206.692 11.6127L203.809 8.98039L200.049 11.6127L197.166 8.98039L193.656 11.6127L191.4 8.98039L187.765 11.4874L187.89 11.8634L188.767 11.2367L190.021 12.6155V20.7633L189.018 21.7661L191.901 24.1477L194.659 21.6407L193.531 20.5126V11.9888L194.659 11.2367L196.539 12.9916V20.5126L195.536 21.5154L198.419 23.897L201.177 21.39L200.049 20.2619V11.9888L201.052 11.362L203.057 13.1169V20.6379L202.18 21.5154L205.063 24.1477L208.949 21.5154V21.1393ZM219.854 19.2591L216.72 21.6407L213.587 19.1337V17.6295L219.478 13.6183V13.493L216.47 8.98039L209.952 12.4902V21.014L214.339 24.1477L219.98 19.6351L219.854 19.2591ZM213.587 17.1281V10.986L213.837 10.8606L216.595 15.2479L213.587 17.1281ZM231.261 16L228.879 14.1197C230.509 12.7409 231.136 10.8606 231.136 9.60714V8.85504H230.885C230.634 9.48179 230.133 10.1085 229.13 10.1085C228.127 10.1085 227.501 9.60714 226.874 8.85504L221.233 11.9888V16.5014L223.364 18.1309C221.233 20.0112 220.857 21.2647 220.857 22.2675C220.857 23.521 221.484 24.3984 222.487 24.7745L222.612 24.5238C222.361 24.2731 222.111 24.1477 222.111 23.521C222.111 23.1449 222.612 22.5182 223.615 22.5182C224.868 22.5182 225.62 23.3956 225.996 23.7717L231.386 20.5126V16H231.261ZM229.882 12.2395C229.005 13.7437 227.125 15.2479 225.996 16L224.618 14.8718V10.4846C225.119 11.7381 226.498 12.7409 227.877 12.7409C228.754 12.7409 229.255 12.6155 229.882 12.2395ZM227.751 22.2675C227.125 20.8886 225.62 19.8858 224.116 19.8858C223.74 19.8858 222.737 19.8858 221.734 20.5126C222.361 19.5098 223.991 17.7549 226.122 16.5014L227.626 17.7549L227.751 22.2675Z" fill="black"/>
</g>
<defs>
<clipPath id="clip0_13620_385">
<rect width="232" height="32" fill="white"/>
</clipPath>
</defs>
</svg>
